<svg xmlns="http://www.w3.org/2000/svg" viewBox="0 0 1280 760" role="img" aria-labelledby="title desc">
  <title id="title">ReconFlow custom R vector review board</title>
  <desc id="desc">Three precisely constructed custom R identity options on white.</desc>
  <rect width="1280" height="760" fill="#F7F8FA"/>
  <text x="64" y="70" fill="#101828" font-family="-apple-system, BlinkMacSystemFont, 'Segoe UI', sans-serif" font-size="30" font-weight="750">ReconFlow</text>
  <text x="64" y="104" fill="#667085" font-family="-apple-system, BlinkMacSystemFont, 'Segoe UI', sans-serif" font-size="16">Custom R study · precise vector geometry · white field</text>

  <g transform="translate(52 140)">
    <rect width="368" height="548" rx="28" fill="#FFFFFF" stroke="#E4E7EC"/>
    <g transform="translate(56 28)">
      <path fill="#101828" fill-rule="evenodd" d="M52 38 H136 C179 38 206 64 206 102 C206 140 179 166 136 166 H96 V218 H52 Z M96 78 V126 H134 C154 126 164 117 164 102 C164 87 154 78 134 78 Z"/>
      <path d="M133 151 L201 214" fill="none" stroke="#155EEF" stroke-width="34" stroke-linecap="round"/>
    </g>
    <text x="28" y="326" fill="#101828" font-family="-apple-system, BlinkMacSystemFont, 'Segoe UI', sans-serif" font-size="22" font-weight="750">A · Core</text>
    <text x="28" y="356" fill="#667085" font-family="-apple-system, BlinkMacSystemFont, 'Segoe UI', sans-serif" font-size="15">黑色主体代表账目，蓝色一笔完成匹配</text>
    <g transform="translate(28 388)">
      <path fill="#101828" fill-rule="evenodd" transform="scale(.19)" d="M52 38 H136 C179 38 206 64 206 102 C206 140 179 166 136 166 H96 V218 H52 Z M96 78 V126 H134 C154 126 164 117 164 102 C164 87 154 78 134 78 Z"/>
      <path d="M25.27 28.69 L38.19 40.66" fill="none" stroke="#155EEF" stroke-width="6.46" stroke-linecap="round"/>
      <text x="58" y="26" fill="#98A2B3" font-family="-apple-system, BlinkMacSystemFont, 'Segoe UI', sans-serif" font-size="12">48px</text>
    </g>
    <g transform="translate(28 458)">
      <rect width="312" height="58" rx="15" fill="#F9FAFB"/>
      <g transform="translate(14 13) scale(.125)">
        <path fill="#101828" fill-rule="evenodd" d="M52 38 H136 C179 38 206 64 206 102 C206 140 179 166 136 166 H96 V218 H52 Z M96 78 V126 H134 C154 126 164 117 164 102 C164 87 154 78 134 78 Z"/>
        <path d="M133 151 L201 214" fill="none" stroke="#155EEF" stroke-width="34" stroke-linecap="round"/>
      </g>
      <text x="60" y="37" fill="#101828" font-family="-apple-system, BlinkMacSystemFont, 'Segoe UI', sans-serif" font-size="22" font-weight="700">ReconFlow</text>
    </g>
  </g>

  <g transform="translate(456 140)">
    <rect width="368" height="548" rx="28" fill="#FFFFFF" stroke="#E4E7EC"/>
    <g transform="translate(56 28)">
      <path fill="#101828" fill-rule="evenodd" d="M48 38 H145 L207 91 V108 C207 145 180 166 138 166 H94 V218 H48 Z M94 78 V126 H136 C155 126 165 117 165 102 C165 87 155 78 136 78 Z M112 148 H160 L211 218 H158 L101 163 Z"/>
    </g>
    <text x="28" y="326" fill="#101828" font-family="-apple-system, BlinkMacSystemFont, 'Segoe UI', sans-serif" font-size="22" font-weight="750">B · Apex</text>
    <text x="28" y="356" fill="#667085" font-family="-apple-system, BlinkMacSystemFont, 'Segoe UI', sans-serif" font-size="15">单色硬朗轮廓，优先建立独占的外形记忆</text>
    <g transform="translate(28 388) scale(.19)">
      <path fill="#101828" fill-rule="evenodd" d="M48 38 H145 L207 91 V108 C207 145 180 166 138 166 H94 V218 H48 Z M94 78 V126 H136 C155 126 165 117 165 102 C165 87 155 78 136 78 Z M112 148 H160 L211 218 H158 L101 163 Z"/>
    </g>
    <text x="86" y="414" fill="#98A2B3" font-family="-apple-system, BlinkMacSystemFont, 'Segoe UI', sans-serif" font-size="12">48px</text>
    <g transform="translate(28 458)">
      <rect width="312" height="58" rx="15" fill="#F9FAFB"/>
      <g transform="translate(14 13) scale(.125)">
        <path fill="#101828" fill-rule="evenodd" d="M48 38 H145 L207 91 V108 C207 145 180 166 138 166 H94 V218 H48 Z M94 78 V126 H136 C155 126 165 117 165 102 C165 87 155 78 136 78 Z M112 148 H160 L211 218 H158 L101 163 Z"/>
      </g>
      <text x="60" y="37" fill="#101828" font-family="-apple-system, BlinkMacSystemFont, 'Segoe UI', sans-serif" font-size="22" font-weight="700">ReconFlow</text>
    </g>
  </g>

  <g transform="translate(860 140)">
    <rect width="368" height="548" rx="28" fill="#FFFFFF" stroke="#E4E7EC"/>
    <g transform="translate(56 28)">
      <path d="M66 216 V42 H136 C178 42 202 65 202 102 C202 139 178 162 136 162 H98 M133 162 L201 216" fill="none" stroke="#155EEF" stroke-width="30" stroke-linecap="round" stroke-linejoin="round"/>
    </g>
    <text x="28" y="326" fill="#101828" font-family="-apple-system, BlinkMacSystemFont, 'Segoe UI', sans-serif" font-size="22" font-weight="750">C · Signal</text>
    <text x="28" y="356" fill="#667085" font-family="-apple-system, BlinkMacSystemFont, 'Segoe UI', sans-serif" font-size="15">单色连续轨迹，最轻、更接近软件品牌</text>
    <g transform="translate(28 388) scale(.19)">
      <path d="M66 216 V42 H136 C178 42 202 65 202 102 C202 139 178 162 136 162 H98 M133 162 L201 216" fill="none" stroke="#155EEF" stroke-width="30" stroke-linecap="round" stroke-linejoin="round"/>
    </g>
    <text x="86" y="414" fill="#98A2B3" font-family="-apple-system, BlinkMacSystemFont, 'Segoe UI', sans-serif" font-size="12">48px</text>
    <g transform="translate(28 458)">
      <rect width="312" height="58" rx="15" fill="#F9FAFB"/>
      <g transform="translate(14 13) scale(.125)">
        <path d="M66 216 V42 H136 C178 42 202 65 202 102 C202 139 178 162 136 162 H98 M133 162 L201 216" fill="none" stroke="#155EEF" stroke-width="30" stroke-linecap="round" stroke-linejoin="round"/>
      </g>
      <text x="60" y="37" fill="#101828" font-family="-apple-system, BlinkMacSystemFont, 'Segoe UI', sans-serif" font-size="22" font-weight="700">ReconFlow</text>
    </g>
  </g>
</svg>
